<mxfile host="Electron" agent="Mozilla/5.0 (Windows NT 10.0; Win64; x64) AppleWebKit/537.36 (KHTML, like Gecko) draw.io/26.0.9 Chrome/128.0.6613.186 Electron/32.2.5 Safari/537.36" version="26.0.9">
  <diagram name="Страница — 1" id="9p0QI68jBKPmT8K-l8in">
    <mxGraphModel dx="2514" dy="993" grid="1" gridSize="10" guides="1" tooltips="1" connect="1" arrows="1" fold="1" page="1" pageScale="1" pageWidth="827" pageHeight="1169" math="1" shadow="0">
      <root>
        <mxCell id="0" />
        <mxCell id="1" parent="0" />
        <mxCell id="xRNSuGFzqD08a6uNSY0O-35" value="" style="rounded=1;whiteSpace=wrap;html=1;fillColor=none;strokeWidth=2;dashed=1;dashPattern=8 8;strokeColor=#B3B3B3;" parent="1" vertex="1">
          <mxGeometry x="-40" y="480" width="720" height="120" as="geometry" />
        </mxCell>
        <mxCell id="xRNSuGFzqD08a6uNSY0O-34" value="" style="rounded=1;whiteSpace=wrap;html=1;fillColor=none;strokeWidth=2;dashed=1;dashPattern=8 8;strokeColor=#B3B3B3;" parent="1" vertex="1">
          <mxGeometry x="40" y="280" width="560" height="120" as="geometry" />
        </mxCell>
        <mxCell id="xRNSuGFzqD08a6uNSY0O-1" value="Plugin 1" style="ellipse;whiteSpace=wrap;html=1;aspect=fixed;strokeWidth=2;fillColor=#f5f5f5;fontColor=#333333;strokeColor=#666666;fontSize=16;fontStyle=1" parent="1" vertex="1">
          <mxGeometry x="120" y="200" width="80" height="80" as="geometry" />
        </mxCell>
        <mxCell id="xRNSuGFzqD08a6uNSY0O-2" value="Plugin 2" style="ellipse;whiteSpace=wrap;html=1;aspect=fixed;strokeWidth=2;fillColor=#f5f5f5;fontColor=#333333;strokeColor=#666666;fontSize=16;fontStyle=1" parent="1" vertex="1">
          <mxGeometry x="280" y="200" width="80" height="80" as="geometry" />
        </mxCell>
        <mxCell id="xRNSuGFzqD08a6uNSY0O-3" value="Plugin k" style="ellipse;whiteSpace=wrap;html=1;aspect=fixed;strokeWidth=2;fillColor=#f5f5f5;fontColor=#333333;strokeColor=#666666;fontSize=16;fontStyle=1" parent="1" vertex="1">
          <mxGeometry x="440" y="200" width="80" height="80" as="geometry" />
        </mxCell>
        <mxCell id="xRNSuGFzqD08a6uNSY0O-23" style="edgeStyle=orthogonalEdgeStyle;curved=1;rounded=0;orthogonalLoop=1;jettySize=auto;html=1;exitX=0.5;exitY=0;exitDx=0;exitDy=0;entryX=0.5;entryY=1;entryDx=0;entryDy=0;endArrow=none;startFill=0;strokeWidth=2;strokeColor=#B3B3B3;" parent="1" source="xRNSuGFzqD08a6uNSY0O-4" target="xRNSuGFzqD08a6uNSY0O-1" edge="1">
          <mxGeometry relative="1" as="geometry">
            <mxPoint x="80" y="360" as="sourcePoint" />
          </mxGeometry>
        </mxCell>
        <mxCell id="xRNSuGFzqD08a6uNSY0O-39" style="edgeStyle=orthogonalEdgeStyle;curved=1;rounded=0;orthogonalLoop=1;jettySize=auto;html=1;exitX=1;exitY=0.5;exitDx=0;exitDy=0;entryX=0;entryY=0.5;entryDx=0;entryDy=0;strokeWidth=2;strokeColor=#B3B3B3;" parent="1" source="xRNSuGFzqD08a6uNSY0O-4" target="xRNSuGFzqD08a6uNSY0O-5" edge="1">
          <mxGeometry relative="1" as="geometry" />
        </mxCell>
        <mxCell id="xRNSuGFzqD08a6uNSY0O-4" value="File 1" style="ellipse;whiteSpace=wrap;html=1;aspect=fixed;strokeWidth=2;fillColor=#DDDDDD;strokeColor=#666666;fontSize=16;fontStyle=1" parent="1" vertex="1">
          <mxGeometry x="40" y="400" width="80" height="80" as="geometry" />
        </mxCell>
        <mxCell id="xRNSuGFzqD08a6uNSY0O-24" style="edgeStyle=orthogonalEdgeStyle;curved=1;rounded=0;orthogonalLoop=1;jettySize=auto;html=1;exitX=0.5;exitY=0;exitDx=0;exitDy=0;entryX=0.5;entryY=1;entryDx=0;entryDy=0;endArrow=none;startFill=0;strokeWidth=2;strokeColor=#B3B3B3;" parent="1" source="xRNSuGFzqD08a6uNSY0O-5" target="xRNSuGFzqD08a6uNSY0O-2" edge="1">
          <mxGeometry relative="1" as="geometry">
            <mxPoint x="240" y="360" as="sourcePoint" />
          </mxGeometry>
        </mxCell>
        <mxCell id="xRNSuGFzqD08a6uNSY0O-5" value="File 2" style="ellipse;whiteSpace=wrap;html=1;aspect=fixed;strokeWidth=2;fillColor=#DDDDDD;strokeColor=#666666;fontSize=16;fontStyle=1" parent="1" vertex="1">
          <mxGeometry x="200" y="400" width="80" height="80" as="geometry" />
        </mxCell>
        <mxCell id="xRNSuGFzqD08a6uNSY0O-25" style="edgeStyle=orthogonalEdgeStyle;curved=1;rounded=0;orthogonalLoop=1;jettySize=auto;html=1;exitX=0.5;exitY=0;exitDx=0;exitDy=0;entryX=0.5;entryY=1;entryDx=0;entryDy=0;endArrow=none;startFill=0;strokeWidth=2;strokeColor=#B3B3B3;" parent="1" source="xRNSuGFzqD08a6uNSY0O-6" target="xRNSuGFzqD08a6uNSY0O-2" edge="1">
          <mxGeometry relative="1" as="geometry">
            <mxPoint x="400" y="360" as="sourcePoint" />
          </mxGeometry>
        </mxCell>
        <mxCell id="xRNSuGFzqD08a6uNSY0O-40" style="edgeStyle=orthogonalEdgeStyle;curved=1;rounded=0;orthogonalLoop=1;jettySize=auto;html=1;exitX=0;exitY=0.5;exitDx=0;exitDy=0;entryX=1;entryY=0.5;entryDx=0;entryDy=0;strokeWidth=2;strokeColor=#B3B3B3;" parent="1" source="xRNSuGFzqD08a6uNSY0O-6" target="xRNSuGFzqD08a6uNSY0O-5" edge="1">
          <mxGeometry relative="1" as="geometry" />
        </mxCell>
        <mxCell id="xRNSuGFzqD08a6uNSY0O-6" value="File 3" style="ellipse;whiteSpace=wrap;html=1;aspect=fixed;strokeWidth=2;fillColor=#DDDDDD;strokeColor=#666666;fontSize=16;fontStyle=1" parent="1" vertex="1">
          <mxGeometry x="360" y="400" width="80" height="80" as="geometry" />
        </mxCell>
        <mxCell id="xRNSuGFzqD08a6uNSY0O-26" style="edgeStyle=orthogonalEdgeStyle;curved=1;rounded=0;orthogonalLoop=1;jettySize=auto;html=1;exitX=0.5;exitY=0;exitDx=0;exitDy=0;entryX=0.5;entryY=1;entryDx=0;entryDy=0;endArrow=none;startFill=0;strokeWidth=2;strokeColor=#B3B3B3;" parent="1" source="xRNSuGFzqD08a6uNSY0O-7" target="xRNSuGFzqD08a6uNSY0O-3" edge="1">
          <mxGeometry relative="1" as="geometry">
            <mxPoint x="560" y="360" as="sourcePoint" />
          </mxGeometry>
        </mxCell>
        <mxCell id="xRNSuGFzqD08a6uNSY0O-7" value="File m" style="ellipse;whiteSpace=wrap;html=1;aspect=fixed;strokeWidth=2;fillColor=#DDDDDD;strokeColor=#666666;fontSize=16;fontStyle=1" parent="1" vertex="1">
          <mxGeometry x="520" y="400" width="80" height="80" as="geometry" />
        </mxCell>
        <mxCell id="xRNSuGFzqD08a6uNSY0O-8" value="Req 1" style="ellipse;whiteSpace=wrap;html=1;aspect=fixed;strokeWidth=2;fillColor=#9E9E9E;strokeColor=#666666;fontSize=16;fontStyle=1" parent="1" vertex="1">
          <mxGeometry x="-40" y="600" width="80" height="80" as="geometry" />
        </mxCell>
        <mxCell id="xRNSuGFzqD08a6uNSY0O-17" style="edgeStyle=orthogonalEdgeStyle;curved=1;rounded=0;orthogonalLoop=1;jettySize=auto;html=1;exitX=0.5;exitY=0;exitDx=0;exitDy=0;entryX=0.5;entryY=1;entryDx=0;entryDy=0;endArrow=none;startFill=0;strokeWidth=2;strokeColor=#B3B3B3;" parent="1" source="xRNSuGFzqD08a6uNSY0O-9" target="xRNSuGFzqD08a6uNSY0O-4" edge="1">
          <mxGeometry relative="1" as="geometry">
            <mxPoint x="80" y="520" as="targetPoint" />
          </mxGeometry>
        </mxCell>
        <mxCell id="xRNSuGFzqD08a6uNSY0O-18" style="edgeStyle=orthogonalEdgeStyle;curved=1;rounded=0;orthogonalLoop=1;jettySize=auto;html=1;exitX=0.5;exitY=0;exitDx=0;exitDy=0;entryX=0.5;entryY=1;entryDx=0;entryDy=0;endArrow=none;startFill=0;strokeWidth=2;strokeColor=#B3B3B3;" parent="1" source="xRNSuGFzqD08a6uNSY0O-9" target="xRNSuGFzqD08a6uNSY0O-5" edge="1">
          <mxGeometry relative="1" as="geometry">
            <mxPoint x="240" y="520" as="targetPoint" />
          </mxGeometry>
        </mxCell>
        <mxCell id="xRNSuGFzqD08a6uNSY0O-9" value="Req 2" style="ellipse;whiteSpace=wrap;html=1;aspect=fixed;strokeWidth=2;fillColor=#9E9E9E;strokeColor=#666666;fontSize=16;fontStyle=1" parent="1" vertex="1">
          <mxGeometry x="120" y="600" width="80" height="80" as="geometry" />
        </mxCell>
        <mxCell id="xRNSuGFzqD08a6uNSY0O-19" style="edgeStyle=orthogonalEdgeStyle;curved=1;rounded=0;orthogonalLoop=1;jettySize=auto;html=1;exitX=0.5;exitY=0;exitDx=0;exitDy=0;entryX=0.5;entryY=1;entryDx=0;entryDy=0;endArrow=none;startFill=0;strokeWidth=2;strokeColor=#B3B3B3;" parent="1" source="xRNSuGFzqD08a6uNSY0O-10" target="xRNSuGFzqD08a6uNSY0O-5" edge="1">
          <mxGeometry relative="1" as="geometry">
            <mxPoint x="240" y="520" as="targetPoint" />
          </mxGeometry>
        </mxCell>
        <mxCell id="xRNSuGFzqD08a6uNSY0O-20" style="edgeStyle=orthogonalEdgeStyle;curved=1;rounded=0;orthogonalLoop=1;jettySize=auto;html=1;exitX=0.5;exitY=0;exitDx=0;exitDy=0;entryX=0.5;entryY=1;entryDx=0;entryDy=0;endArrow=none;startFill=0;strokeWidth=2;strokeColor=#B3B3B3;" parent="1" source="xRNSuGFzqD08a6uNSY0O-10" target="xRNSuGFzqD08a6uNSY0O-6" edge="1">
          <mxGeometry relative="1" as="geometry">
            <mxPoint x="400" y="520" as="targetPoint" />
          </mxGeometry>
        </mxCell>
        <mxCell id="xRNSuGFzqD08a6uNSY0O-10" value="Req 3" style="ellipse;whiteSpace=wrap;html=1;aspect=fixed;strokeWidth=2;fillColor=#9E9E9E;strokeColor=#666666;fontSize=16;fontStyle=1" parent="1" vertex="1">
          <mxGeometry x="280" y="600" width="80" height="80" as="geometry" />
        </mxCell>
        <mxCell id="xRNSuGFzqD08a6uNSY0O-21" style="edgeStyle=orthogonalEdgeStyle;curved=1;rounded=0;orthogonalLoop=1;jettySize=auto;html=1;exitX=0.5;exitY=0;exitDx=0;exitDy=0;entryX=0.5;entryY=1;entryDx=0;entryDy=0;endArrow=none;startFill=0;strokeWidth=2;strokeColor=#B3B3B3;" parent="1" source="xRNSuGFzqD08a6uNSY0O-11" target="xRNSuGFzqD08a6uNSY0O-6" edge="1">
          <mxGeometry relative="1" as="geometry">
            <mxPoint x="400" y="520" as="targetPoint" />
          </mxGeometry>
        </mxCell>
        <mxCell id="xRNSuGFzqD08a6uNSY0O-11" value="Req 4" style="ellipse;whiteSpace=wrap;html=1;aspect=fixed;strokeWidth=2;fillColor=#9E9E9E;strokeColor=#666666;fontSize=16;fontStyle=1" parent="1" vertex="1">
          <mxGeometry x="440" y="600" width="80" height="80" as="geometry" />
        </mxCell>
        <mxCell id="xRNSuGFzqD08a6uNSY0O-22" style="edgeStyle=orthogonalEdgeStyle;curved=1;rounded=0;orthogonalLoop=1;jettySize=auto;html=1;exitX=0.5;exitY=0;exitDx=0;exitDy=0;entryX=0.5;entryY=1;entryDx=0;entryDy=0;endArrow=none;startFill=0;strokeWidth=2;strokeColor=#B3B3B3;" parent="1" source="xRNSuGFzqD08a6uNSY0O-12" target="xRNSuGFzqD08a6uNSY0O-7" edge="1">
          <mxGeometry relative="1" as="geometry">
            <mxPoint x="560" y="520" as="targetPoint" />
          </mxGeometry>
        </mxCell>
        <mxCell id="xRNSuGFzqD08a6uNSY0O-12" value="Req n" style="ellipse;whiteSpace=wrap;html=1;aspect=fixed;strokeWidth=2;fillColor=#9E9E9E;strokeColor=#666666;fontSize=16;fontStyle=1" parent="1" vertex="1">
          <mxGeometry x="600" y="600" width="80" height="80" as="geometry" />
        </mxCell>
        <mxCell id="xRNSuGFzqD08a6uNSY0O-13" value="..." style="text;html=1;align=center;verticalAlign=middle;whiteSpace=wrap;rounded=0;fontSize=26;strokeWidth=2;" parent="1" vertex="1">
          <mxGeometry x="370" y="225" width="60" height="30" as="geometry" />
        </mxCell>
        <mxCell id="xRNSuGFzqD08a6uNSY0O-14" value="..." style="text;html=1;align=center;verticalAlign=middle;whiteSpace=wrap;rounded=0;fontSize=26;strokeWidth=2;" parent="1" vertex="1">
          <mxGeometry x="450" y="425" width="60" height="30" as="geometry" />
        </mxCell>
        <mxCell id="xRNSuGFzqD08a6uNSY0O-15" value="..." style="text;html=1;align=center;verticalAlign=middle;whiteSpace=wrap;rounded=0;fontSize=26;strokeWidth=2;" parent="1" vertex="1">
          <mxGeometry x="530" y="625" width="60" height="30" as="geometry" />
        </mxCell>
        <mxCell id="xRNSuGFzqD08a6uNSY0O-27" value="source files" style="text;html=1;align=center;verticalAlign=middle;whiteSpace=wrap;rounded=0;fontSize=26;" parent="1" vertex="1">
          <mxGeometry x="650" y="420" width="140" height="30" as="geometry" />
        </mxCell>
        <mxCell id="xRNSuGFzqD08a6uNSY0O-28" value="$$m$$" style="text;html=1;align=center;verticalAlign=middle;whiteSpace=wrap;rounded=0;fontSize=26;strokeWidth=2;" parent="1" vertex="1">
          <mxGeometry x="600" y="420" width="60" height="30" as="geometry" />
        </mxCell>
        <mxCell id="xRNSuGFzqD08a6uNSY0O-29" value="requirements" style="text;html=1;align=center;verticalAlign=middle;whiteSpace=wrap;rounded=0;fontSize=26;" parent="1" vertex="1">
          <mxGeometry x="726" y="625" width="154" height="30" as="geometry" />
        </mxCell>
        <mxCell id="xRNSuGFzqD08a6uNSY0O-30" value="$$n$$" style="text;html=1;align=center;verticalAlign=middle;whiteSpace=wrap;rounded=0;fontSize=26;" parent="1" vertex="1">
          <mxGeometry x="680" y="625" width="60" height="30" as="geometry" />
        </mxCell>
        <mxCell id="xRNSuGFzqD08a6uNSY0O-31" value="plugins" style="text;html=1;align=center;verticalAlign=middle;whiteSpace=wrap;rounded=0;fontSize=26;strokeWidth=2;" parent="1" vertex="1">
          <mxGeometry x="570" y="225" width="110" height="30" as="geometry" />
        </mxCell>
        <mxCell id="xRNSuGFzqD08a6uNSY0O-32" value="$$k$$" style="text;html=1;align=center;verticalAlign=middle;whiteSpace=wrap;rounded=0;fontSize=26;strokeWidth=2;" parent="1" vertex="1">
          <mxGeometry x="520" y="225" width="60" height="30" as="geometry" />
        </mxCell>
        <mxCell id="xRNSuGFzqD08a6uNSY0O-33" value="Distribution of files among plugins (non-directional linkage)" style="text;html=1;align=center;verticalAlign=middle;whiteSpace=wrap;rounded=0;fontSize=26;" parent="1" vertex="1">
          <mxGeometry x="-360" y="310" width="400" height="30" as="geometry" />
        </mxCell>
        <mxCell id="xRNSuGFzqD08a6uNSY0O-36" value="" style="edgeStyle=orthogonalEdgeStyle;curved=1;rounded=0;orthogonalLoop=1;jettySize=auto;html=1;exitX=0.5;exitY=0;exitDx=0;exitDy=0;endArrow=none;startFill=0;strokeWidth=2;strokeColor=#B3B3B3;entryX=0.5;entryY=1;entryDx=0;entryDy=0;" parent="1" source="xRNSuGFzqD08a6uNSY0O-8" target="xRNSuGFzqD08a6uNSY0O-4" edge="1">
          <mxGeometry relative="1" as="geometry">
            <mxPoint y="600" as="sourcePoint" />
            <mxPoint x="80" y="520" as="targetPoint" />
          </mxGeometry>
        </mxCell>
        <mxCell id="xRNSuGFzqD08a6uNSY0O-37" value="Traceability of requirements to source code files (undirected linkage)" style="text;html=1;align=center;verticalAlign=middle;whiteSpace=wrap;rounded=0;fontSize=26;" parent="1" vertex="1">
          <mxGeometry x="-390" y="540" width="350" height="30" as="geometry" />
        </mxCell>
        <mxCell id="xRNSuGFzqD08a6uNSY0O-43" value="Dependencies between source code files (directed linkage)" style="text;html=1;align=center;verticalAlign=middle;whiteSpace=wrap;rounded=0;fontSize=26;" parent="1" vertex="1">
          <mxGeometry x="-380" y="425" width="360" height="30" as="geometry" />
        </mxCell>
        <mxCell id="xRNSuGFzqD08a6uNSY0O-42" value="" style="rounded=1;whiteSpace=wrap;html=1;fillColor=none;strokeWidth=2;dashed=1;dashPattern=8 8;strokeColor=#B3B3B3;" parent="1" vertex="1">
          <mxGeometry x="280" y="410" width="80" height="60" as="geometry" />
        </mxCell>
        <mxCell id="xRNSuGFzqD08a6uNSY0O-41" value="" style="rounded=1;whiteSpace=wrap;html=1;fillColor=none;strokeWidth=2;dashed=1;dashPattern=8 8;strokeColor=#B3B3B3;" parent="1" vertex="1">
          <mxGeometry x="120" y="410" width="80" height="60" as="geometry" />
        </mxCell>
      </root>
    </mxGraphModel>
  </diagram>
</mxfile>
